<svg xmlns="http://www.w3.org/2000/svg" xmlns:xlink="http://www.w3.org/1999/xlink" width="500" zoomAndPan="magnify" viewBox="0 0 375 374.999991" height="500" preserveAspectRatio="xMidYMid meet" version="1.0"><defs><g/><clipPath id="30ee3dff04"><path d="M 52 115.378906 L 126 115.378906 L 126 260.878906 L 52 260.878906 Z M 52 115.378906 " clip-rule="nonzero"/></clipPath><clipPath id="6c88af50e3"><path d="M 16 131 L 132.175781 131 L 132.175781 226 L 16 226 Z M 16 131 " clip-rule="nonzero"/></clipPath><clipPath id="6d7d9433ac"><path d="M 187 155 L 229 155 L 229 198.480469 L 187 198.480469 Z M 187 155 " clip-rule="nonzero"/></clipPath></defs><g clip-path="url(#30ee3dff04)"><path fill="#004aad" d="M 114.902344 148.929688 L 114.902344 142.027344 C 114.902344 134.832031 111.914062 127.851562 106.710938 122.878906 C 101.523438 117.933594 94.757812 115.390625 87.65625 115.722656 C 73.761719 116.371094 62.878906 127.785156 62.878906 141.703125 L 62.878906 152.15625 C 62.878906 152.15625 64.328125 168.179688 54.738281 168.566406 C 62.726562 168.378906 69.167969 161.820312 69.167969 153.789062 L 69.167969 141.703125 C 69.167969 131.148438 77.417969 122.5 87.953125 122.003906 C 93.320312 121.753906 98.4375 123.683594 102.367188 127.429688 C 106.339844 131.21875 108.613281 136.539062 108.613281 142.027344 L 108.613281 148.929688 C 108.613281 149.050781 108.617188 149.171875 108.621094 149.285156 C 109.007812 158.875 125.027344 157.425781 125.027344 157.425781 L 123.398438 157.425781 C 118.710938 157.425781 114.902344 153.613281 114.902344 148.929688 M 52.796875 214.300781 C 52.796875 214.300781 67.703125 212.953125 69.105469 221.460938 C 69.144531 221.902344 69.167969 222.347656 69.167969 222.796875 L 69.167969 234.558594 C 69.167969 240.050781 71.445312 245.367188 75.414062 249.15625 C 79.34375 252.90625 84.46875 254.832031 89.828125 254.582031 C 100.363281 254.089844 108.613281 245.4375 108.613281 234.882812 L 108.613281 222.796875 C 108.613281 214.765625 115.054688 208.210938 123.042969 208.023438 C 113.453125 208.410156 114.902344 224.429688 114.902344 224.429688 L 114.902344 234.882812 C 114.902344 248.800781 104.015625 260.214844 90.121094 260.863281 C 89.710938 260.882812 89.296875 260.894531 88.890625 260.894531 C 82.246094 260.894531 75.957031 258.367188 71.074219 253.703125 C 65.863281 248.734375 62.878906 241.757812 62.878906 234.558594 L 62.878906 222.796875 C 62.878906 218.113281 59.066406 214.304688 54.382812 214.304688 L 52.796875 214.304688 L 52.796875 214.300781 " fill-opacity="1" fill-rule="nonzero"/></g><g clip-path="url(#6c88af50e3)"><path fill="#00bf63" d="M 160.242188 211.726562 C 160.242188 215.449219 157.222656 218.464844 153.503906 218.464844 C 149.78125 218.464844 146.765625 215.449219 146.765625 211.726562 C 146.765625 208.007812 149.78125 204.988281 153.503906 204.988281 C 157.222656 204.988281 160.242188 208.007812 160.242188 211.726562 M 54.382812 208.015625 C 62.082031 208.015625 68.429688 213.933594 69.105469 221.460938 C 67.703125 212.953125 52.796875 214.300781 52.796875 214.300781 L 52.796875 214.304688 L 42.621094 214.304688 C 35.421875 214.304688 28.441406 211.316406 23.472656 206.109375 C 18.523438 200.925781 15.980469 194.160156 16.3125 187.0625 C 16.960938 173.167969 28.375 162.285156 42.296875 162.285156 L 54.382812 162.285156 C 59.066406 162.285156 62.878906 158.476562 62.878906 153.789062 L 62.878906 152.15625 C 62.878906 152.15625 64.328125 168.179688 54.738281 168.566406 C 54.621094 168.570312 54.503906 168.574219 54.382812 168.574219 L 42.296875 168.574219 C 31.742188 168.574219 23.085938 176.820312 22.59375 187.355469 C 22.34375 192.722656 24.269531 197.839844 28.019531 201.769531 C 31.8125 205.738281 37.132812 208.015625 42.621094 208.015625 L 54.382812 208.015625 M 193.609375 170.582031 L 193.609375 172.167969 C 193.609375 173.800781 192.367188 175.140625 190.78125 175.304688 C 189.546875 179.183594 187.097656 182.625 183.757812 185.050781 C 180.449219 187.457031 176.464844 188.730469 172.433594 188.730469 C 171.179688 188.730469 169.917969 188.605469 168.671875 188.359375 C 164.195312 187.457031 160.132812 186.347656 156.492188 185.039062 C 155.898438 185.636719 155.089844 185.976562 154.253906 185.976562 C 153.851562 185.976562 153.441406 185.898438 153.042969 185.734375 C 148.855469 183.988281 145.257812 181.933594 142.347656 179.628906 C 142.3125 179.597656 142.277344 179.570312 142.242188 179.539062 C 137.339844 175.285156 134.296875 169.757812 133.464844 163.714844 L 123.398438 163.714844 C 115.363281 163.714844 108.808594 157.273438 108.621094 149.285156 C 109.007812 158.875 125.027344 157.425781 125.027344 157.425781 L 133.398438 157.425781 C 134.117188 151.164062 137.191406 145.433594 142.242188 141.050781 C 142.277344 141.019531 142.3125 140.992188 142.347656 140.960938 C 145.257812 138.65625 148.855469 136.601562 153.042969 134.855469 C 154.261719 134.351562 155.617188 134.667969 156.488281 135.550781 C 160.132812 134.246094 164.195312 133.132812 168.671875 132.230469 C 173.925781 131.179688 179.421875 132.386719 183.757812 135.539062 C 187.222656 138.058594 189.726562 141.664062 190.914062 145.71875 C 192.4375 145.9375 193.609375 147.246094 193.609375 148.828125 L 193.609375 150.417969 C 193.609375 152.15625 192.199219 153.566406 190.457031 153.566406 C 188.71875 153.566406 187.308594 152.15625 187.308594 150.417969 L 187.308594 148.828125 C 187.308594 147.75 187.851562 146.800781 188.679688 146.234375 C 187.621094 142.710938 185.429688 139.582031 182.414062 137.390625 C 178.59375 134.609375 173.746094 133.542969 169.125 134.476562 C 164.800781 135.34375 160.894531 136.410156 157.390625 137.65625 C 157.433594 138.925781 156.703125 140.144531 155.460938 140.660156 C 151.835938 142.171875 148.757812 143.914062 146.3125 145.84375 C 141.933594 149.671875 139.519531 154.800781 139.519531 160.296875 C 139.519531 165.792969 141.933594 170.917969 146.3125 174.746094 C 148.757812 176.675781 151.835938 178.417969 155.460938 179.929688 C 156.703125 180.445312 157.4375 181.667969 157.394531 182.9375 C 160.894531 184.183594 164.800781 185.246094 169.125 186.113281 C 173.746094 187.046875 178.59375 185.980469 182.414062 183.199219 C 185.332031 181.078125 187.480469 178.078125 188.578125 174.691406 C 187.808594 174.117188 187.308594 173.203125 187.308594 172.167969 L 187.308594 170.582031 C 187.308594 168.84375 188.71875 167.429688 190.457031 167.429688 C 192.199219 167.429688 193.609375 168.84375 193.609375 170.582031 M 153.507812 220.84375 C 148.398438 220.84375 144.242188 216.683594 144.242188 211.574219 C 144.242188 206.464844 148.398438 202.304688 153.507812 202.304688 C 158.621094 202.304688 162.777344 206.464844 162.777344 211.574219 C 162.777344 216.683594 158.621094 220.84375 153.507812 220.84375 M 153.507812 197.949219 C 147.226562 197.949219 141.925781 202.222656 140.355469 208.015625 L 123.394531 208.015625 C 123.277344 208.015625 123.15625 208.019531 123.042969 208.019531 C 113.449219 208.410156 114.902344 224.429688 114.902344 224.429688 L 114.902344 222.800781 C 114.902344 218.113281 118.710938 214.304688 123.394531 214.304688 L 140.15625 214.304688 C 141.425781 220.511719 146.929688 225.199219 153.507812 225.199219 C 161.023438 225.199219 167.136719 219.089844 167.136719 211.574219 C 167.136719 204.0625 161.023438 197.949219 153.507812 197.949219 " fill-opacity="1" fill-rule="nonzero"/></g><path fill="#ffffff" d="M 114.90625 222.546875 C 114.929688 221.734375 115.066406 220.953125 115.304688 220.214844 C 115.296875 220.234375 115.292969 220.257812 115.285156 220.28125 L 115.28125 220.285156 C 115.070312 220.980469 114.941406 221.710938 114.910156 222.46875 C 114.910156 222.496094 114.90625 222.519531 114.90625 222.546875 M 57.09375 214.746094 C 57.011719 214.726562 56.929688 214.707031 56.847656 214.6875 L 56.839844 214.683594 C 56.144531 214.46875 55.414062 214.339844 54.65625 214.3125 C 54.636719 214.3125 54.621094 214.308594 54.601562 214.308594 C 55.46875 214.328125 56.308594 214.480469 57.09375 214.746094 M 53.789062 214.246094 C 54.039062 214.234375 54.328125 214.226562 54.652344 214.226562 C 54.65625 214.226562 54.65625 214.226562 54.65625 214.226562 C 54.328125 214.226562 54.039062 214.234375 53.789062 214.246094 M 123.199219 157.421875 C 122.347656 157.402344 121.527344 157.257812 120.757812 157.007812 C 120.796875 157.015625 120.839844 157.027344 120.878906 157.035156 L 120.886719 157.039062 C 121.582031 157.253906 122.3125 157.382812 123.070312 157.410156 C 123.113281 157.414062 123.15625 157.417969 123.199219 157.421875 " fill-opacity="1" fill-rule="nonzero"/><path fill="#ffffff" d="M 69.105469 225.535156 C 67.136719 220.230469 62.648438 216.148438 57.09375 214.746094 C 56.308594 214.480469 55.46875 214.328125 54.601562 214.308594 C 54.332031 214.28125 54.058594 214.257812 53.789062 214.246094 C 54.039062 214.234375 54.328125 214.226562 54.65625 214.226562 C 54.742188 214.226562 54.832031 214.222656 54.921875 214.222656 C 59.117188 214.222656 67.980469 215 69.046875 221.460938 C 69.085938 221.902344 69.105469 222.347656 69.105469 222.796875 L 69.105469 225.535156 M 114.851562 220.855469 C 115.03125 216.351562 116.230469 209.042969 122.0625 208.082031 C 122.296875 208.058594 122.539062 208.042969 122.777344 208.035156 C 116.34375 208.5 115.042969 216.171875 114.851562 220.855469 M 54.902344 168.558594 C 62.113281 168.125 62.957031 158.726562 62.957031 154.355469 C 62.957031 154.023438 62.953125 153.71875 62.945312 153.449219 C 62.949219 153.375 62.953125 153.300781 62.957031 153.230469 C 63.074219 156.628906 62.882812 167.328125 55.738281 168.507812 C 55.460938 168.53125 55.183594 168.550781 54.902344 168.558594 M 122.804688 157.5 C 121.644531 157.5 120.132812 157.4375 118.523438 157.21875 C 114.113281 156.605469 109.015625 154.761719 108.636719 149.558594 C 108.625 149.347656 108.621094 149.136719 108.621094 148.921875 L 108.621094 146.1875 C 110.605469 151.53125 115.148438 155.632812 120.757812 157.007812 C 121.527344 157.257812 122.347656 157.402344 123.199219 157.421875 C 123.453125 157.449219 123.707031 157.464844 123.960938 157.476562 C 123.636719 157.492188 123.246094 157.5 122.804688 157.5 " fill-opacity="1" fill-rule="nonzero"/><path fill="#ff914d" d="M 114.84375 223.359375 C 114.824219 222.734375 114.808594 221.867188 114.851562 220.855469 C 115.042969 216.171875 116.34375 208.5 122.777344 208.035156 C 122.984375 208.027344 123.191406 208.023438 123.398438 208.023438 L 126.136719 208.023438 C 120.773438 210.011719 116.660156 214.574219 115.304688 220.214844 C 115.066406 220.953125 114.929688 221.734375 114.90625 222.546875 C 114.878906 222.816406 114.855469 223.085938 114.84375 223.359375 M 53.789062 214.246094 C 53.78125 214.246094 53.773438 214.246094 53.765625 214.242188 C 54.023438 214.234375 54.320312 214.226562 54.652344 214.226562 C 54.328125 214.226562 54.039062 214.234375 53.789062 214.246094 M 54.398438 168.566406 L 51.664062 168.566406 C 57.046875 166.570312 61.171875 161.972656 62.511719 156.308594 L 62.515625 156.300781 C 62.730469 155.609375 62.859375 154.875 62.886719 154.117188 C 62.910156 153.894531 62.929688 153.671875 62.945312 153.449219 C 62.953125 153.71875 62.957031 154.023438 62.957031 154.355469 C 62.957031 158.726562 62.113281 168.125 54.902344 168.558594 C 54.738281 168.5625 54.570312 168.566406 54.398438 168.566406 M 118.523438 157.21875 C 114.308594 156.636719 109.453125 154.9375 108.679688 150.261719 C 108.660156 150.03125 108.644531 149.792969 108.636719 149.558594 C 109.015625 154.761719 114.113281 156.605469 118.523438 157.21875 " fill-opacity="1" fill-rule="nonzero"/><g fill="#000000" fill-opacity="1"><g transform="translate(28.812524, 194.999987)"><g><path d="M 9.6875 -9.515625 C 11.6875 -6.734375 13.992188 -3.820312 16.609375 -0.78125 L 16.546875 -0.359375 C 15.503906 -0.0976562 14.273438 0.113281 12.859375 0.28125 L 12.40625 0.0625 C 9.957031 -3.1875 7.78125 -6.304688 5.875 -9.296875 L 5.828125 -5.71875 L 5.96875 0 L 2.1875 0 L 2.375 -5.375 L 2.1875 -18.03125 L 6.015625 -18.03125 L 5.875 -9.65625 L 10.953125 -16.296875 L 11.984375 -18.03125 L 16.078125 -18.03125 Z M 9.6875 -9.515625 "/></g></g></g><g fill="#000000" fill-opacity="1"><g transform="translate(50.53822, 194.999987)"><g><path d="M 13.53125 -3.140625 L 13.75 -2.828125 L 13.5 0 L 2.1875 0 L 2.375 -5.375 L 2.1875 -18.03125 L 13.609375 -18.03125 L 13.828125 -17.71875 L 13.546875 -14.890625 L 9.234375 -15.03125 L 5.984375 -15.015625 L 5.90625 -10.671875 L 9.015625 -10.609375 L 11.953125 -10.703125 L 12.1875 -10.421875 L 11.921875 -7.59375 L 8.734375 -7.671875 L 5.859375 -7.640625 L 5.828125 -5.71875 L 5.90625 -3 L 9.078125 -2.96875 Z M 13.53125 -3.140625 "/></g></g></g><g fill="#000000" fill-opacity="1"><g transform="translate(70.164199, 194.999987)"><g><path d="M 9.328125 -5.015625 L 9.484375 0 L 5.71875 0 L 5.875 -5.015625 L 5.859375 -6.078125 L 0.109375 -18.03125 L 4.140625 -18.03125 L 4.53125 -16.765625 L 7.59375 -9.90625 L 7.84375 -9.90625 L 11.25 -16.65625 L 11.78125 -18.03125 L 15.6875 -18.03125 L 9.375 -6.21875 Z M 9.328125 -5.015625 "/></g></g></g><g fill="#000000" fill-opacity="1"><g transform="translate(100.765341, 194.999987)"><g><path d="M 20.96875 0 L 17.609375 0 L 17.328125 -5.453125 L 16.6875 -12.40625 L 16.40625 -12.40625 L 12.375 -1.90625 L 9.4375 -1.90625 L 5.765625 -12.40625 L 5.515625 -12.40625 L 4.8125 -5.828125 L 4.421875 0 L 1.234375 0 L 3.046875 -18.03125 L 7.421875 -18.03125 L 8.140625 -15.375 L 11 -6.828125 L 11.25 -6.828125 L 14.25 -15.375 L 15.0625 -18.03125 L 19.34375 -18.03125 Z M 20.96875 0 "/></g></g></g><g fill="#000000" fill-opacity="1"><g transform="translate(128.454222, 194.999987)"><g><path d="M 13.53125 -3.140625 L 13.75 -2.828125 L 13.5 0 L 2.1875 0 L 2.375 -5.375 L 2.1875 -18.03125 L 13.609375 -18.03125 L 13.828125 -17.71875 L 13.546875 -14.890625 L 9.234375 -15.03125 L 5.984375 -15.015625 L 5.90625 -10.671875 L 9.015625 -10.609375 L 11.953125 -10.703125 L 12.1875 -10.421875 L 11.921875 -7.59375 L 8.734375 -7.671875 L 5.859375 -7.640625 L 5.828125 -5.71875 L 5.90625 -3 L 9.078125 -2.96875 Z M 13.53125 -3.140625 "/></g></g></g><g fill="#000000" fill-opacity="1"><g transform="translate(148.080197, 194.999987)"><g><path d="M 9.4375 -18.140625 C 12.050781 -18.140625 14.054688 -17.410156 15.453125 -15.953125 C 16.859375 -14.503906 17.5625 -12.414062 17.5625 -9.6875 C 17.5625 -6.5 16.773438 -4.050781 15.203125 -2.34375 C 13.640625 -0.644531 11.398438 0.203125 8.484375 0.203125 C 7.609375 0.203125 6.554688 0.179688 5.328125 0.140625 C 4.109375 0.0976562 3.0625 0.0507812 2.1875 0 L 2.375 -5.375 L 2.1875 -18.03125 Z M 9.15625 -2.75 C 12.125 -2.75 13.609375 -4.769531 13.609375 -8.8125 C 13.609375 -11.019531 13.25 -12.625 12.53125 -13.625 C 11.8125 -14.625 10.6875 -15.125 9.15625 -15.125 C 8.164062 -15.125 7.109375 -15.078125 5.984375 -14.984375 L 5.828125 -5.71875 L 5.90625 -2.9375 C 7.21875 -2.8125 8.300781 -2.75 9.15625 -2.75 Z M 9.15625 -2.75 "/></g></g></g><g fill="#000000" fill-opacity="1"><g transform="translate(171.793612, 194.999987)"><g><path d="M 7.984375 -18.25 C 9.515625 -18.25 11.035156 -17.941406 12.546875 -17.328125 L 11.921875 -14.0625 L 11.375 -13.828125 C 10.738281 -14.273438 10.078125 -14.628906 9.390625 -14.890625 C 8.710938 -15.148438 8.09375 -15.28125 7.53125 -15.28125 C 6.78125 -15.28125 6.179688 -15.078125 5.734375 -14.671875 C 5.285156 -14.273438 5.0625 -13.816406 5.0625 -13.296875 C 5.0625 -12.753906 5.304688 -12.296875 5.796875 -11.921875 C 6.296875 -11.554688 7.078125 -11.117188 8.140625 -10.609375 C 9.171875 -10.140625 10.007812 -9.703125 10.65625 -9.296875 C 11.300781 -8.898438 11.847656 -8.375 12.296875 -7.71875 C 12.753906 -7.070312 12.984375 -6.269531 12.984375 -5.3125 C 12.984375 -4.289062 12.703125 -3.351562 12.140625 -2.5 C 11.585938 -1.65625 10.796875 -0.984375 9.765625 -0.484375 C 8.742188 0.00390625 7.5625 0.25 6.21875 0.25 C 4.445312 0.25 2.664062 -0.128906 0.875 -0.890625 L 1.40625 -4.421875 L 1.8125 -4.640625 C 2.5625 -3.992188 3.378906 -3.492188 4.265625 -3.140625 C 5.148438 -2.796875 5.941406 -2.625 6.640625 -2.625 C 7.460938 -2.625 8.097656 -2.828125 8.546875 -3.234375 C 9.003906 -3.640625 9.234375 -4.117188 9.234375 -4.671875 C 9.234375 -5.273438 8.984375 -5.757812 8.484375 -6.125 C 7.992188 -6.5 7.203125 -6.945312 6.109375 -7.46875 C 5.097656 -7.914062 4.273438 -8.335938 3.640625 -8.734375 C 3.003906 -9.128906 2.460938 -9.648438 2.015625 -10.296875 C 1.566406 -10.953125 1.34375 -11.75 1.34375 -12.6875 C 1.34375 -13.726562 1.625 -14.671875 2.1875 -15.515625 C 2.75 -16.367188 3.53125 -17.035156 4.53125 -17.515625 C 5.539062 -18.003906 6.691406 -18.25 7.984375 -18.25 Z M 7.984375 -18.25 "/></g></g></g><g fill="#000000" fill-opacity="1"><g transform="translate(229.507824, 194.999987)"><g><path d="M 12.0625 -2.828125 L 11.8125 0 L 2.078125 0 L 2.265625 -5.375 L 2.078125 -18.03125 L 5.9375 -18.03125 L 5.71875 -5.71875 L 5.796875 -3.140625 L 11.84375 -3.140625 Z M 12.0625 -2.828125 "/></g></g></g><g fill="#000000" fill-opacity="1"><g transform="translate(247.006095, 194.999987)"><g><path d="M 16.046875 -8.875 L 16.015625 -6.5 C 16.035156 -4.351562 15.410156 -2.691406 14.140625 -1.515625 C 12.867188 -0.335938 11.050781 0.25 8.6875 0.25 C 6.40625 0.25 4.664062 -0.316406 3.46875 -1.453125 C 2.28125 -2.585938 1.710938 -4.222656 1.765625 -6.359375 L 1.796875 -8.953125 L 1.703125 -18.03125 L 5.515625 -18.03125 L 5.3125 -6.859375 C 5.300781 -5.492188 5.59375 -4.484375 6.1875 -3.828125 C 6.78125 -3.179688 7.6875 -2.859375 8.90625 -2.859375 C 11.332031 -2.859375 12.535156 -4.125 12.515625 -6.65625 L 12.3125 -18.03125 L 16.1875 -18.03125 Z M 16.046875 -8.875 "/></g></g></g><g fill="#000000" fill-opacity="1"><g transform="translate(270.243578, 194.999987)"><g><path d="M 13.6875 -17.71875 L 13.46875 -14.890625 L 10.078125 -15.0625 L 8.953125 -15.0625 L 8.8125 -5.71875 L 8.984375 0 L 5.1875 0 L 5.375 -5.375 L 5.234375 -15.0625 L 4.109375 -15.0625 L 0.671875 -14.890625 L 0.421875 -15.203125 L 0.671875 -18.03125 L 13.46875 -18.03125 Z M 13.6875 -17.71875 "/></g></g></g><g fill="#000000" fill-opacity="1"><g transform="translate(289.70158, 194.999987)"><g><path d="M 5.828125 -5.71875 L 5.984375 0 L 2.1875 0 L 2.375 -5.375 L 2.1875 -18.03125 L 6.046875 -18.03125 Z M 5.828125 -5.71875 "/></g></g></g><g fill="#000000" fill-opacity="1"><g transform="translate(303.336373, 194.999987)"><g><path d="M 9.328125 -18.28125 C 11.859375 -18.28125 13.8125 -17.507812 15.1875 -15.96875 C 16.5625 -14.425781 17.25 -12.238281 17.25 -9.40625 C 17.25 -6.3125 16.5 -3.921875 15 -2.234375 C 13.507812 -0.554688 11.40625 0.28125 8.6875 0.28125 C 6.164062 0.28125 4.21875 -0.503906 2.84375 -2.078125 C 1.46875 -3.660156 0.78125 -5.898438 0.78125 -8.796875 C 0.78125 -11.835938 1.519531 -14.175781 3 -15.8125 C 4.488281 -17.457031 6.597656 -18.28125 9.328125 -18.28125 Z M 8.984375 -15.234375 C 7.492188 -15.234375 6.410156 -14.765625 5.734375 -13.828125 C 5.066406 -12.898438 4.734375 -11.378906 4.734375 -9.265625 C 4.734375 -6.859375 5.0625 -5.140625 5.71875 -4.109375 C 6.382812 -3.085938 7.484375 -2.578125 9.015625 -2.578125 C 10.503906 -2.578125 11.582031 -3.046875 12.25 -3.984375 C 12.925781 -4.929688 13.265625 -6.476562 13.265625 -8.625 C 13.265625 -11 12.929688 -12.691406 12.265625 -13.703125 C 11.609375 -14.722656 10.515625 -15.234375 8.984375 -15.234375 Z M 8.984375 -15.234375 "/></g></g></g><g fill="#000000" fill-opacity="1"><g transform="translate(326.713842, 194.999987)"><g><path d="M 17.078125 -5.578125 L 17.21875 0 L 13.125 0 L 5.765625 -12.203125 L 5.546875 -12.203125 L 5.515625 -6.21875 L 5.625 0 L 2.1875 0 L 2.375 -5.3125 L 2.21875 -18.03125 L 6.265625 -18.03125 L 13.640625 -5.828125 L 13.890625 -5.828125 L 13.796875 -17.859375 L 17.296875 -18.09375 Z M 17.078125 -5.578125 "/></g></g></g><path stroke-linecap="butt" transform="matrix(0.751204, -0.000000000000000274, 0.000000000000000274, 0.75, 131.632496, 157.606454)" fill="none" stroke-linejoin="miter" d="M 0.000421515 3.998687 L 77.885825 3.998687 " stroke="#00bf63" stroke-width="8" stroke-opacity="1" stroke-miterlimit="4"/><g clip-path="url(#6d7d9433ac)"><path fill="#004aad" d="M 207.519531 189.03125 C 207.933594 189.03125 208.265625 189.03125 208.664062 189.03125 C 208.664062 189.96875 208.652344 190.867188 208.664062 191.769531 C 208.6875 193.851562 210.164062 195.519531 212.230469 195.710938 C 212.761719 195.757812 213.339844 195.6875 213.847656 195.507812 C 221.511719 192.84375 226.210938 187.503906 227.429688 179.464844 C 228.964844 169.320312 222.410156 159.929688 212.480469 157.597656 C 201.425781 155.015625 190.246094 162.640625 188.734375 173.949219 C 187.71875 181.515625 190.398438 187.671875 196.3125 192.429688 C 196.5625 192.632812 196.820312 192.796875 196.953125 192.894531 C 197.707031 192.5625 198.332031 192.148438 199.007812 192.003906 C 200.375 191.707031 201.675781 192.417969 202.300781 193.640625 C 202.914062 194.847656 202.691406 196.277344 201.734375 197.25 C 200.800781 198.195312 199.347656 198.445312 198.144531 197.867188 C 196.929688 197.273438 196.21875 195.972656 196.457031 194.585938 C 196.539062 194.101562 196.386719 193.910156 196.042969 193.640625 C 189.726562 188.808594 186.75 182.425781 187.503906 174.492188 C 188.449219 164.5 196.871094 156.554688 206.871094 156.011719 C 217.605469 155.417969 226.800781 162.84375 228.574219 173.5 C 230.25 183.597656 223.839844 193.816406 214.039062 196.667969 C 210.777344 197.617188 207.589844 195.273438 207.519531 191.863281 C 207.496094 190.9375 207.519531 190.015625 207.519531 189.03125 Z M 199.527344 193.070312 C 198.476562 193.058594 197.578125 193.933594 197.542969 195 C 197.519531 196.101562 198.378906 197.011719 199.46875 197.035156 C 200.542969 197.058594 201.472656 196.160156 201.484375 195.082031 C 201.496094 193.992188 200.613281 193.082031 199.527344 193.070312 Z M 199.527344 193.070312 " fill-opacity="1" fill-rule="nonzero"/></g><path fill="#004aad" d="M 204.203125 167.96875 C 203.625 167.96875 203.019531 168.066406 202.574219 167.507812 C 202.5 167.425781 202.207031 167.460938 202.054688 167.519531 C 200.871094 167.992188 200.351562 169.273438 200.800781 170.632812 C 201.617188 173.085938 202.429688 175.523438 203.269531 177.960938 C 203.457031 178.507812 203.527344 179.109375 204.144531 179.429688 C 204.285156 179.503906 204.34375 179.761719 204.425781 179.929688 C 204.589844 180.234375 204.710938 180.578125 204.921875 180.863281 C 205.738281 182 206.824219 182.792969 208.226562 182.710938 C 209.835938 182.605469 210.96875 181.644531 211.6875 180.1875 C 211.878906 179.796875 212.207031 179.476562 212.457031 179.125 C 212.550781 178.992188 212.632812 178.863281 212.679688 178.71875 C 213.601562 175.972656 214.535156 173.238281 215.429688 170.492188 C 215.84375 169.214844 215.277344 167.933594 214.132812 167.507812 C 213.96875 167.449219 213.742188 167.507812 213.566406 167.566406 C 213.1875 167.6875 212.832031 167.886719 212.445312 167.957031 C 212.066406 168.027344 211.664062 167.992188 211.261719 167.96875 C 210.625 167.933594 210.234375 167.507812 210.210938 166.855469 C 210.175781 166.097656 210.519531 165.589844 211.167969 165.53125 C 211.734375 165.484375 212.300781 165.519531 212.878906 165.53125 C 213.011719 165.53125 213.1875 165.578125 213.257812 165.671875 C 213.636719 166.230469 214.285156 166.265625 214.816406 166.527344 C 216.457031 167.332031 217.15625 169.152344 216.515625 171.058594 C 215.65625 173.675781 214.757812 176.28125 213.894531 178.898438 C 213.800781 179.195312 213.859375 179.539062 213.847656 179.855469 C 213.824219 180.140625 213.847656 180.460938 213.753906 180.722656 C 213.210938 182.203125 212.253906 183.351562 210.863281 184.097656 C 209.65625 184.734375 209.078125 185.683594 209.113281 187.054688 C 209.136719 188.015625 208.253906 188.546875 207.4375 188.039062 C 207.238281 187.910156 207.070312 187.542969 207.082031 187.304688 C 207.164062 185.753906 206.515625 184.699219 205.148438 183.964844 C 203.859375 183.277344 202.996094 182.140625 202.476562 180.769531 C 202.394531 180.53125 202.277344 180.222656 202.359375 180.035156 C 202.609375 179.488281 202.371094 179.039062 202.21875 178.566406 C 201.378906 176.042969 200.519531 173.535156 199.691406 171 C 199.089844 169.191406 199.773438 167.414062 201.332031 166.585938 C 201.886719 166.289062 202.476562 165.992188 203.019531 165.742188 C 203.695312 165.4375 204.628906 165.566406 205.417969 165.683594 C 205.9375 165.769531 206.136719 166.464844 205.984375 167.140625 C 205.855469 167.6875 205.5 167.980469 204.933594 168.003906 C 204.675781 167.980469 204.4375 167.96875 204.203125 167.96875 Z M 204.203125 167.96875 " fill-opacity="1" fill-rule="nonzero"/><path fill="#004aad" d="M 199.527344 193.945312 C 200.128906 193.945312 200.613281 194.433594 200.636719 195.023438 C 200.648438 195.640625 200.140625 196.148438 199.515625 196.148438 C 198.898438 196.148438 198.429688 195.6875 198.417969 195.070312 C 198.40625 194.433594 198.886719 193.945312 199.527344 193.945312 Z M 199.527344 193.945312 " fill-opacity="1" fill-rule="nonzero"/><path stroke-linecap="butt" transform="matrix(0.748063, 0, 0, 0.75, 223.447943, 158.356454)" fill="none" stroke-linejoin="miter" d="M 0.00170483 3.498687 L 169.449661 3.498687 " stroke="#004aad" stroke-width="7" stroke-opacity="1" stroke-miterlimit="4"/><g fill="#000000" fill-opacity="1"><g transform="translate(139.82623, 215.750026)"><g/></g></g><g fill="#000000" fill-opacity="1"><g transform="translate(142.908261, 215.750026)"><g><path d="M 1.109375 -8.328125 L 3.5 -8.328125 C 4.21875 -8.328125 4.78125 -8.25 5.1875 -8.09375 C 5.59375 -7.9375 5.878906 -7.695312 6.046875 -7.375 C 6.210938 -7.0625 6.296875 -6.644531 6.296875 -6.125 C 6.296875 -5.1875 5.894531 -4.597656 5.09375 -4.359375 L 5.09375 -4.3125 C 5.625 -4.195312 6.003906 -3.976562 6.234375 -3.65625 C 6.460938 -3.332031 6.578125 -2.90625 6.578125 -2.375 C 6.578125 -1.570312 6.363281 -0.972656 5.9375 -0.578125 C 5.519531 -0.191406 4.789062 0 3.75 0 L 1.109375 0 Z M 3 -4.6875 C 3.550781 -4.6875 3.984375 -4.722656 4.296875 -4.796875 C 4.617188 -4.878906 4.859375 -5.019531 5.015625 -5.21875 C 5.171875 -5.414062 5.25 -5.695312 5.25 -6.0625 C 5.25 -6.457031 5.171875 -6.75 5.015625 -6.9375 C 4.867188 -7.132812 4.644531 -7.265625 4.34375 -7.328125 C 4.039062 -7.390625 3.59375 -7.421875 3 -7.421875 L 2.1875 -7.421875 L 2.1875 -4.6875 Z M 3.296875 -0.921875 C 3.890625 -0.921875 4.335938 -0.957031 4.640625 -1.03125 C 4.953125 -1.113281 5.171875 -1.257812 5.296875 -1.46875 C 5.429688 -1.675781 5.5 -1.984375 5.5 -2.390625 C 5.5 -2.742188 5.429688 -3.023438 5.296875 -3.234375 C 5.160156 -3.441406 4.929688 -3.59375 4.609375 -3.6875 C 4.296875 -3.78125 3.859375 -3.828125 3.296875 -3.828125 L 2.1875 -3.828125 L 2.1875 -0.921875 Z M 3.296875 -0.921875 "/></g></g></g><g fill="#000000" fill-opacity="1"><g transform="translate(150.34827, 215.750026)"><g><path d="M 1.625 -7.671875 C 1.382812 -7.671875 1.21875 -7.707031 1.125 -7.78125 C 1.039062 -7.851562 1 -8.019531 1 -8.28125 C 1 -8.53125 1.039062 -8.691406 1.125 -8.765625 C 1.21875 -8.847656 1.382812 -8.890625 1.625 -8.890625 C 1.851562 -8.890625 2.007812 -8.847656 2.09375 -8.765625 C 2.1875 -8.691406 2.234375 -8.53125 2.234375 -8.28125 C 2.234375 -8.03125 2.1875 -7.863281 2.09375 -7.78125 C 2.007812 -7.707031 1.851562 -7.671875 1.625 -7.671875 Z M 1.09375 -6.484375 L 2.125 -6.484375 L 2.125 0 L 1.09375 0 Z M 1.09375 -6.484375 "/></g></g></g><g fill="#000000" fill-opacity="1"><g transform="translate(153.564277, 215.750026)"><g><path d="M 2.53125 0.078125 C 2.039062 0.078125 1.675781 -0.03125 1.4375 -0.25 C 1.207031 -0.476562 1.09375 -0.832031 1.09375 -1.3125 L 1.09375 -9.125 L 2.125 -9.125 L 2.125 -1.578125 C 2.125 -1.265625 2.164062 -1.054688 2.25 -0.953125 C 2.34375 -0.847656 2.5 -0.796875 2.71875 -0.796875 C 2.914062 -0.796875 3.082031 -0.816406 3.21875 -0.859375 L 3.21875 0 C 3.019531 0.0507812 2.789062 0.078125 2.53125 0.078125 Z M 2.53125 0.078125 "/></g></g></g><g fill="#000000" fill-opacity="1"><g transform="translate(156.99628, 215.750026)"><g><path d="M 2.53125 0.078125 C 2.039062 0.078125 1.675781 -0.03125 1.4375 -0.25 C 1.207031 -0.476562 1.09375 -0.832031 1.09375 -1.3125 L 1.09375 -9.125 L 2.125 -9.125 L 2.125 -1.578125 C 2.125 -1.265625 2.164062 -1.054688 2.25 -0.953125 C 2.34375 -0.847656 2.5 -0.796875 2.71875 -0.796875 C 2.914062 -0.796875 3.082031 -0.816406 3.21875 -0.859375 L 3.21875 0 C 3.019531 0.0507812 2.789062 0.078125 2.53125 0.078125 Z M 2.53125 0.078125 "/></g></g></g><g fill="#000000" fill-opacity="1"><g transform="translate(160.428283, 215.750026)"><g><path d="M 1.625 -7.671875 C 1.382812 -7.671875 1.21875 -7.707031 1.125 -7.78125 C 1.039062 -7.851562 1 -8.019531 1 -8.28125 C 1 -8.53125 1.039062 -8.691406 1.125 -8.765625 C 1.21875 -8.847656 1.382812 -8.890625 1.625 -8.890625 C 1.851562 -8.890625 2.007812 -8.847656 2.09375 -8.765625 C 2.1875 -8.691406 2.234375 -8.53125 2.234375 -8.28125 C 2.234375 -8.03125 2.1875 -7.863281 2.09375 -7.78125 C 2.007812 -7.707031 1.851562 -7.671875 1.625 -7.671875 Z M 1.09375 -6.484375 L 2.125 -6.484375 L 2.125 0 L 1.09375 0 Z M 1.09375 -6.484375 "/></g></g></g><g fill="#000000" fill-opacity="1"><g transform="translate(163.64429, 215.750026)"><g><path d="M 4.203125 -6.59375 C 5.003906 -6.59375 5.566406 -6.410156 5.890625 -6.046875 C 6.210938 -5.679688 6.375 -5.160156 6.375 -4.484375 L 6.375 0 L 5.328125 0 L 5.328125 -4.109375 C 5.328125 -4.648438 5.242188 -5.046875 5.078125 -5.296875 C 4.910156 -5.546875 4.582031 -5.671875 4.09375 -5.671875 C 3.601562 -5.671875 3.191406 -5.582031 2.859375 -5.40625 C 2.523438 -5.238281 2.28125 -4.894531 2.125 -4.375 L 2.125 0 L 1.09375 0 L 1.09375 -6.484375 L 2.125 -6.484375 L 2.125 -5.5625 C 2.3125 -5.9375 2.585938 -6.203125 2.953125 -6.359375 C 3.328125 -6.515625 3.742188 -6.59375 4.203125 -6.59375 Z M 4.203125 -6.59375 "/></g></g></g><g fill="#000000" fill-opacity="1"><g transform="translate(171.060301, 215.750026)"><g><path d="M 6.546875 -6.484375 L 6.546875 -0.453125 C 6.546875 0.460938 6.285156 1.164062 5.765625 1.65625 C 5.242188 2.15625 4.445312 2.40625 3.375 2.40625 C 2.832031 2.40625 2.304688 2.351562 1.796875 2.25 L 1.796875 1.375 C 2.296875 1.46875 2.828125 1.515625 3.390625 1.515625 C 4.109375 1.515625 4.640625 1.351562 4.984375 1.03125 C 5.335938 0.707031 5.515625 0.175781 5.515625 -0.5625 L 5.515625 -1.21875 C 5.367188 -0.8125 5.128906 -0.503906 4.796875 -0.296875 C 4.472656 -0.0976562 4.007812 0 3.40625 0 C 2.394531 0 1.691406 -0.28125 1.296875 -0.84375 C 0.910156 -1.40625 0.71875 -2.222656 0.71875 -3.296875 C 0.71875 -4.316406 0.914062 -5.117188 1.3125 -5.703125 C 1.707031 -6.296875 2.40625 -6.59375 3.40625 -6.59375 C 4.019531 -6.59375 4.488281 -6.476562 4.8125 -6.25 C 5.132812 -6.019531 5.367188 -5.691406 5.515625 -5.265625 L 5.515625 -6.484375 Z M 3.546875 -0.859375 C 4.296875 -0.859375 4.816406 -1.054688 5.109375 -1.453125 C 5.398438 -1.859375 5.546875 -2.472656 5.546875 -3.296875 C 5.546875 -4.097656 5.394531 -4.703125 5.09375 -5.109375 C 4.800781 -5.523438 4.285156 -5.734375 3.546875 -5.734375 C 3.054688 -5.734375 2.6875 -5.625 2.4375 -5.40625 C 2.1875 -5.195312 2.019531 -4.914062 1.9375 -4.5625 C 1.863281 -4.21875 1.828125 -3.796875 1.828125 -3.296875 C 1.828125 -2.773438 1.867188 -2.34375 1.953125 -2 C 2.035156 -1.65625 2.203125 -1.378906 2.453125 -1.171875 C 2.703125 -0.960938 3.066406 -0.859375 3.546875 -0.859375 Z M 3.546875 -0.859375 "/></g></g></g><g fill="#000000" fill-opacity="1"><g transform="translate(178.69232, 215.750026)"><g/></g></g><g fill="#000000" fill-opacity="1"><g transform="translate(181.776331, 215.750026)"><g><path d="M 1.109375 -8.328125 L 3.421875 -8.328125 C 4.191406 -8.328125 4.800781 -8.234375 5.25 -8.046875 C 5.695312 -7.867188 6.007812 -7.585938 6.1875 -7.203125 C 6.375 -6.816406 6.46875 -6.300781 6.46875 -5.65625 C 6.46875 -5.007812 6.363281 -4.484375 6.15625 -4.078125 C 5.945312 -3.679688 5.617188 -3.394531 5.171875 -3.21875 C 4.734375 -3.039062 4.148438 -2.953125 3.421875 -2.953125 L 2.1875 -2.953125 L 2.1875 0 L 1.109375 0 Z M 3.328125 -3.859375 C 3.847656 -3.859375 4.253906 -3.910156 4.546875 -4.015625 C 4.835938 -4.117188 5.046875 -4.300781 5.171875 -4.5625 C 5.296875 -4.820312 5.359375 -5.1875 5.359375 -5.65625 C 5.359375 -6.09375 5.296875 -6.4375 5.171875 -6.6875 C 5.046875 -6.9375 4.835938 -7.113281 4.546875 -7.21875 C 4.253906 -7.332031 3.847656 -7.390625 3.328125 -7.390625 L 2.1875 -7.390625 L 2.1875 -3.859375 Z M 3.328125 -3.859375 "/></g></g></g><g fill="#000000" fill-opacity="1"><g transform="translate(188.940343, 215.750026)"><g><path d="M 4.3125 -6.59375 L 4.265625 -5.65625 L 4.125 -5.65625 C 3.65625 -5.65625 3.242188 -5.550781 2.890625 -5.34375 C 2.546875 -5.132812 2.289062 -4.765625 2.125 -4.234375 L 2.125 0 L 1.09375 0 L 1.09375 -6.484375 L 2.125 -6.484375 L 2.125 -5.296875 C 2.3125 -5.785156 2.582031 -6.125 2.9375 -6.3125 C 3.300781 -6.5 3.71875 -6.59375 4.1875 -6.59375 Z M 4.3125 -6.59375 "/></g></g></g><g fill="#000000" fill-opacity="1"><g transform="translate(193.488351, 215.750026)"><g><path d="M 6.234375 -3.890625 C 6.234375 -3.722656 6.21875 -3.46875 6.1875 -3.125 L 1.78125 -2.859375 C 1.789062 -2.128906 1.945312 -1.601562 2.25 -1.28125 C 2.5625 -0.957031 3.097656 -0.796875 3.859375 -0.796875 C 4.210938 -0.796875 4.578125 -0.832031 4.953125 -0.90625 C 5.328125 -0.988281 5.640625 -1.09375 5.890625 -1.21875 L 5.890625 -0.265625 C 5.691406 -0.160156 5.390625 -0.0703125 4.984375 0 C 4.578125 0.0820312 4.148438 0.125 3.703125 0.125 C 3.046875 0.125 2.492188 0.0195312 2.046875 -0.1875 C 1.609375 -0.394531 1.273438 -0.742188 1.046875 -1.234375 C 0.816406 -1.734375 0.703125 -2.398438 0.703125 -3.234375 C 0.703125 -4.472656 0.945312 -5.34375 1.4375 -5.84375 C 1.9375 -6.34375 2.671875 -6.59375 3.640625 -6.59375 C 4.640625 -6.59375 5.320312 -6.335938 5.6875 -5.828125 C 6.050781 -5.316406 6.234375 -4.671875 6.234375 -3.890625 Z M 5.21875 -3.875 C 5.21875 -4.269531 5.179688 -4.597656 5.109375 -4.859375 C 5.035156 -5.117188 4.882812 -5.332031 4.65625 -5.5 C 4.425781 -5.664062 4.085938 -5.75 3.640625 -5.75 C 3.160156 -5.75 2.785156 -5.664062 2.515625 -5.5 C 2.253906 -5.332031 2.070312 -5.097656 1.96875 -4.796875 C 1.863281 -4.492188 1.800781 -4.101562 1.78125 -3.625 Z M 5.21875 -3.875 "/></g></g></g><g fill="#000000" fill-opacity="1"><g transform="translate(200.424363, 215.750026)"><g><path d="M 3.703125 0.125 C 3.046875 0.125 2.492188 0.0195312 2.046875 -0.1875 C 1.609375 -0.394531 1.273438 -0.742188 1.046875 -1.234375 C 0.816406 -1.734375 0.703125 -2.398438 0.703125 -3.234375 C 0.703125 -4.078125 0.816406 -4.742188 1.046875 -5.234375 C 1.273438 -5.722656 1.609375 -6.070312 2.046875 -6.28125 C 2.492188 -6.488281 3.046875 -6.59375 3.703125 -6.59375 C 4.359375 -6.59375 4.925781 -6.515625 5.40625 -6.359375 L 5.40625 -5.40625 C 4.882812 -5.601562 4.320312 -5.703125 3.71875 -5.703125 C 3.226562 -5.703125 2.847656 -5.625 2.578125 -5.46875 C 2.304688 -5.320312 2.109375 -5.070312 1.984375 -4.71875 C 1.867188 -4.363281 1.8125 -3.867188 1.8125 -3.234375 C 1.8125 -2.597656 1.867188 -2.101562 1.984375 -1.75 C 2.109375 -1.394531 2.304688 -1.144531 2.578125 -1 C 2.847656 -0.863281 3.234375 -0.796875 3.734375 -0.796875 C 4.410156 -0.796875 4.972656 -0.882812 5.421875 -1.0625 L 5.421875 -0.125 C 5.234375 -0.0625 4.972656 -0.00390625 4.640625 0.046875 C 4.316406 0.0976562 4.003906 0.125 3.703125 0.125 Z M 3.703125 0.125 "/></g></g></g><g fill="#000000" fill-opacity="1"><g transform="translate(206.38837, 215.750026)"><g><path d="M 1.625 -7.671875 C 1.382812 -7.671875 1.21875 -7.707031 1.125 -7.78125 C 1.039062 -7.851562 1 -8.019531 1 -8.28125 C 1 -8.53125 1.039062 -8.691406 1.125 -8.765625 C 1.21875 -8.847656 1.382812 -8.890625 1.625 -8.890625 C 1.851562 -8.890625 2.007812 -8.847656 2.09375 -8.765625 C 2.1875 -8.691406 2.234375 -8.53125 2.234375 -8.28125 C 2.234375 -8.03125 2.1875 -7.863281 2.09375 -7.78125 C 2.007812 -7.707031 1.851562 -7.671875 1.625 -7.671875 Z M 1.09375 -6.484375 L 2.125 -6.484375 L 2.125 0 L 1.09375 0 Z M 1.09375 -6.484375 "/></g></g></g><g fill="#000000" fill-opacity="1"><g transform="translate(209.604377, 215.750026)"><g><path d="M 2.59375 0.078125 C 2.28125 0.078125 1.929688 0.0546875 1.546875 0.015625 C 1.160156 -0.0234375 0.878906 -0.0703125 0.703125 -0.125 L 0.703125 -1.015625 C 0.941406 -0.953125 1.238281 -0.894531 1.59375 -0.84375 C 1.957031 -0.789062 2.285156 -0.765625 2.578125 -0.765625 C 3.085938 -0.765625 3.460938 -0.835938 3.703125 -0.984375 C 3.953125 -1.140625 4.078125 -1.398438 4.078125 -1.765625 C 4.078125 -2.023438 4.039062 -2.222656 3.96875 -2.359375 C 3.894531 -2.492188 3.757812 -2.601562 3.5625 -2.6875 C 3.375 -2.769531 3.0625 -2.863281 2.625 -2.96875 C 2.144531 -3.082031 1.773438 -3.210938 1.515625 -3.359375 C 1.253906 -3.515625 1.070312 -3.707031 0.96875 -3.9375 C 0.863281 -4.164062 0.8125 -4.46875 0.8125 -4.84375 C 0.8125 -5.382812 1.007812 -5.8125 1.40625 -6.125 C 1.8125 -6.4375 2.390625 -6.59375 3.140625 -6.59375 C 3.453125 -6.59375 3.757812 -6.570312 4.0625 -6.53125 C 4.375 -6.5 4.613281 -6.453125 4.78125 -6.390625 L 4.703125 -5.515625 C 4.515625 -5.578125 4.28125 -5.632812 4 -5.6875 C 3.726562 -5.738281 3.445312 -5.765625 3.15625 -5.765625 C 2.675781 -5.765625 2.328125 -5.695312 2.109375 -5.5625 C 1.890625 -5.425781 1.78125 -5.179688 1.78125 -4.828125 C 1.78125 -4.597656 1.8125 -4.421875 1.875 -4.296875 C 1.945312 -4.179688 2.066406 -4.085938 2.234375 -4.015625 C 2.398438 -3.941406 2.664062 -3.867188 3.03125 -3.796875 C 3.539062 -3.671875 3.9375 -3.535156 4.21875 -3.390625 C 4.507812 -3.242188 4.71875 -3.046875 4.84375 -2.796875 C 4.976562 -2.546875 5.046875 -2.210938 5.046875 -1.796875 C 5.046875 -0.546875 4.226562 0.078125 2.59375 0.078125 Z M 2.59375 0.078125 "/></g></g></g><g fill="#000000" fill-opacity="1"><g transform="translate(215.35239, 215.750026)"><g><path d="M 1.625 -7.671875 C 1.382812 -7.671875 1.21875 -7.707031 1.125 -7.78125 C 1.039062 -7.851562 1 -8.019531 1 -8.28125 C 1 -8.53125 1.039062 -8.691406 1.125 -8.765625 C 1.21875 -8.847656 1.382812 -8.890625 1.625 -8.890625 C 1.851562 -8.890625 2.007812 -8.847656 2.09375 -8.765625 C 2.1875 -8.691406 2.234375 -8.53125 2.234375 -8.28125 C 2.234375 -8.03125 2.1875 -7.863281 2.09375 -7.78125 C 2.007812 -7.707031 1.851562 -7.671875 1.625 -7.671875 Z M 1.09375 -6.484375 L 2.125 -6.484375 L 2.125 0 L 1.09375 0 Z M 1.09375 -6.484375 "/></g></g></g><g fill="#000000" fill-opacity="1"><g transform="translate(218.568397, 215.750026)"><g><path d="M 3.703125 0.125 C 3.046875 0.125 2.492188 0.0195312 2.046875 -0.1875 C 1.609375 -0.394531 1.273438 -0.742188 1.046875 -1.234375 C 0.816406 -1.734375 0.703125 -2.398438 0.703125 -3.234375 C 0.703125 -4.078125 0.816406 -4.742188 1.046875 -5.234375 C 1.273438 -5.722656 1.609375 -6.070312 2.046875 -6.28125 C 2.492188 -6.488281 3.046875 -6.59375 3.703125 -6.59375 C 4.378906 -6.59375 4.929688 -6.488281 5.359375 -6.28125 C 5.796875 -6.070312 6.128906 -5.722656 6.359375 -5.234375 C 6.585938 -4.742188 6.703125 -4.078125 6.703125 -3.234375 C 6.703125 -2.398438 6.585938 -1.734375 6.359375 -1.234375 C 6.128906 -0.742188 5.796875 -0.394531 5.359375 -0.1875 C 4.929688 0.0195312 4.378906 0.125 3.703125 0.125 Z M 3.703125 -0.75 C 4.203125 -0.75 4.585938 -0.828125 4.859375 -0.984375 C 5.128906 -1.140625 5.320312 -1.390625 5.4375 -1.734375 C 5.550781 -2.085938 5.609375 -2.585938 5.609375 -3.234375 C 5.609375 -3.878906 5.546875 -4.378906 5.421875 -4.734375 C 5.304688 -5.097656 5.109375 -5.351562 4.828125 -5.5 C 4.554688 -5.65625 4.179688 -5.734375 3.703125 -5.734375 C 3.210938 -5.734375 2.832031 -5.65625 2.5625 -5.5 C 2.289062 -5.351562 2.097656 -5.101562 1.984375 -4.75 C 1.867188 -4.394531 1.8125 -3.890625 1.8125 -3.234375 C 1.8125 -2.597656 1.867188 -2.101562 1.984375 -1.75 C 2.109375 -1.394531 2.304688 -1.140625 2.578125 -0.984375 C 2.847656 -0.828125 3.222656 -0.75 3.703125 -0.75 Z M 3.703125 -0.75 "/></g></g></g><g fill="#000000" fill-opacity="1"><g transform="translate(225.984408, 215.750026)"><g><path d="M 4.203125 -6.59375 C 5.003906 -6.59375 5.566406 -6.410156 5.890625 -6.046875 C 6.210938 -5.679688 6.375 -5.160156 6.375 -4.484375 L 6.375 0 L 5.328125 0 L 5.328125 -4.109375 C 5.328125 -4.648438 5.242188 -5.046875 5.078125 -5.296875 C 4.910156 -5.546875 4.582031 -5.671875 4.09375 -5.671875 C 3.601562 -5.671875 3.191406 -5.582031 2.859375 -5.40625 C 2.523438 -5.238281 2.28125 -4.894531 2.125 -4.375 L 2.125 0 L 1.09375 0 L 1.09375 -6.484375 L 2.125 -6.484375 L 2.125 -5.5625 C 2.3125 -5.9375 2.585938 -6.203125 2.953125 -6.359375 C 3.328125 -6.515625 3.742188 -6.59375 4.203125 -6.59375 Z M 4.203125 -6.59375 "/></g></g></g><g fill="#000000" fill-opacity="1"><g transform="translate(233.400419, 215.750026)"><g/></g></g><g fill="#000000" fill-opacity="1"><g transform="translate(236.48443, 215.750026)"><g><path d="M 6.171875 -1.546875 C 6.378906 -1.328125 6.59375 -1.164062 6.8125 -1.0625 C 7.03125 -0.957031 7.320312 -0.90625 7.6875 -0.90625 L 7.6875 0 C 7.09375 0 6.640625 -0.0507812 6.328125 -0.15625 C 6.023438 -0.257812 5.722656 -0.476562 5.421875 -0.8125 C 5.035156 -0.488281 4.644531 -0.25 4.25 -0.09375 C 3.863281 0.0507812 3.457031 0.125 3.03125 0.125 C 2.519531 0.125 2.070312 0.03125 1.6875 -0.15625 C 1.300781 -0.34375 1 -0.609375 0.78125 -0.953125 C 0.570312 -1.296875 0.46875 -1.691406 0.46875 -2.140625 C 0.46875 -2.648438 0.609375 -3.109375 0.890625 -3.515625 C 1.179688 -3.929688 1.660156 -4.320312 2.328125 -4.6875 C 2.078125 -5.03125 1.90625 -5.332031 1.8125 -5.59375 C 1.726562 -5.863281 1.6875 -6.160156 1.6875 -6.484375 C 1.6875 -6.867188 1.773438 -7.207031 1.953125 -7.5 C 2.128906 -7.800781 2.375 -8.035156 2.6875 -8.203125 C 3 -8.367188 3.351562 -8.453125 3.75 -8.453125 C 4.332031 -8.453125 4.789062 -8.28125 5.125 -7.9375 C 5.46875 -7.59375 5.640625 -7.164062 5.640625 -6.65625 C 5.640625 -6.175781 5.488281 -5.769531 5.1875 -5.4375 C 4.894531 -5.101562 4.425781 -4.773438 3.78125 -4.453125 L 5.53125 -2.296875 C 5.957031 -2.929688 6.195312 -3.601562 6.25 -4.3125 L 7.296875 -4.3125 C 7.210938 -3.757812 7.085938 -3.257812 6.921875 -2.8125 C 6.753906 -2.363281 6.503906 -1.941406 6.171875 -1.546875 Z M 3.71875 -7.5625 C 3.445312 -7.5625 3.21875 -7.460938 3.03125 -7.265625 C 2.851562 -7.066406 2.765625 -6.820312 2.765625 -6.53125 C 2.765625 -6.300781 2.800781 -6.070312 2.875 -5.84375 C 2.945312 -5.625 3.070312 -5.390625 3.25 -5.140625 C 3.71875 -5.359375 4.054688 -5.578125 4.265625 -5.796875 C 4.472656 -6.015625 4.578125 -6.285156 4.578125 -6.609375 C 4.578125 -6.890625 4.5 -7.117188 4.34375 -7.296875 C 4.1875 -7.472656 3.976562 -7.5625 3.71875 -7.5625 Z M 1.5625 -2.265625 C 1.5625 -1.816406 1.707031 -1.457031 2 -1.1875 C 2.300781 -0.925781 2.691406 -0.796875 3.171875 -0.796875 C 3.484375 -0.796875 3.769531 -0.847656 4.03125 -0.953125 C 4.289062 -1.066406 4.566406 -1.253906 4.859375 -1.515625 L 2.875 -4 C 2.40625 -3.726562 2.066406 -3.453125 1.859375 -3.171875 C 1.660156 -2.890625 1.5625 -2.585938 1.5625 -2.265625 Z M 1.5625 -2.265625 "/></g></g></g><g fill="#000000" fill-opacity="1"><g transform="translate(244.164445, 215.750026)"><g/></g></g><g fill="#000000" fill-opacity="1"><g transform="translate(247.248456, 215.750026)"><g><path d="M 7.140625 0 L 5.75 0 L 2.765625 -3.90625 L 2.1875 -3.90625 L 2.1875 0 L 1.109375 0 L 1.109375 -8.328125 L 2.1875 -8.328125 L 2.1875 -4.859375 L 2.765625 -4.859375 L 5.6875 -8.328125 L 7.03125 -8.328125 L 3.625 -4.453125 Z M 7.140625 0 "/></g></g></g><g fill="#000000" fill-opacity="1"><g transform="translate(254.616471, 215.750026)"><g><path d="M 6.234375 -3.890625 C 6.234375 -3.722656 6.21875 -3.46875 6.1875 -3.125 L 1.78125 -2.859375 C 1.789062 -2.128906 1.945312 -1.601562 2.25 -1.28125 C 2.5625 -0.957031 3.097656 -0.796875 3.859375 -0.796875 C 4.210938 -0.796875 4.578125 -0.832031 4.953125 -0.90625 C 5.328125 -0.988281 5.640625 -1.09375 5.890625 -1.21875 L 5.890625 -0.265625 C 5.691406 -0.160156 5.390625 -0.0703125 4.984375 0 C 4.578125 0.0820312 4.148438 0.125 3.703125 0.125 C 3.046875 0.125 2.492188 0.0195312 2.046875 -0.1875 C 1.609375 -0.394531 1.273438 -0.742188 1.046875 -1.234375 C 0.816406 -1.734375 0.703125 -2.398438 0.703125 -3.234375 C 0.703125 -4.472656 0.945312 -5.34375 1.4375 -5.84375 C 1.9375 -6.34375 2.671875 -6.59375 3.640625 -6.59375 C 4.640625 -6.59375 5.320312 -6.335938 5.6875 -5.828125 C 6.050781 -5.316406 6.234375 -4.671875 6.234375 -3.890625 Z M 5.21875 -3.875 C 5.21875 -4.269531 5.179688 -4.597656 5.109375 -4.859375 C 5.035156 -5.117188 4.882812 -5.332031 4.65625 -5.5 C 4.425781 -5.664062 4.085938 -5.75 3.640625 -5.75 C 3.160156 -5.75 2.785156 -5.664062 2.515625 -5.5 C 2.253906 -5.332031 2.070312 -5.097656 1.96875 -4.796875 C 1.863281 -4.492188 1.800781 -4.101562 1.78125 -3.625 Z M 5.21875 -3.875 "/></g></g></g><g fill="#000000" fill-opacity="1"><g transform="translate(261.552483, 215.750026)"><g><path d="M 0.796875 1.515625 C 1.347656 1.515625 1.757812 1.394531 2.03125 1.15625 C 2.3125 0.914062 2.539062 0.523438 2.71875 -0.015625 L 0.125 -6.484375 L 1.234375 -6.484375 L 3.21875 -1.109375 L 3.28125 -1.109375 L 5.15625 -6.484375 L 6.203125 -6.484375 L 3.875 -0.21875 C 3.644531 0.40625 3.414062 0.894531 3.1875 1.25 C 2.957031 1.613281 2.65625 1.894531 2.28125 2.09375 C 1.90625 2.300781 1.410156 2.40625 0.796875 2.40625 Z M 0.796875 1.515625 "/></g></g></g><g fill="#000000" fill-opacity="1"><g transform="translate(267.876499, 215.750026)"><g/></g></g><g fill="#000000" fill-opacity="1"><g transform="translate(270.96051, 215.750026)"><g><path d="M 1.109375 -8.328125 L 3.421875 -8.328125 C 4.191406 -8.328125 4.800781 -8.234375 5.25 -8.046875 C 5.695312 -7.867188 6.007812 -7.585938 6.1875 -7.203125 C 6.375 -6.816406 6.46875 -6.300781 6.46875 -5.65625 C 6.46875 -5.007812 6.363281 -4.484375 6.15625 -4.078125 C 5.945312 -3.679688 5.617188 -3.394531 5.171875 -3.21875 C 4.734375 -3.039062 4.148438 -2.953125 3.421875 -2.953125 L 2.1875 -2.953125 L 2.1875 0 L 1.109375 0 Z M 3.328125 -3.859375 C 3.847656 -3.859375 4.253906 -3.910156 4.546875 -4.015625 C 4.835938 -4.117188 5.046875 -4.300781 5.171875 -4.5625 C 5.296875 -4.820312 5.359375 -5.1875 5.359375 -5.65625 C 5.359375 -6.09375 5.296875 -6.4375 5.171875 -6.6875 C 5.046875 -6.9375 4.835938 -7.113281 4.546875 -7.21875 C 4.253906 -7.332031 3.847656 -7.390625 3.328125 -7.390625 L 2.1875 -7.390625 L 2.1875 -3.859375 Z M 3.328125 -3.859375 "/></g></g></g><g fill="#000000" fill-opacity="1"><g transform="translate(278.124522, 215.750026)"><g><path d="M 2.53125 0.078125 C 2.039062 0.078125 1.675781 -0.03125 1.4375 -0.25 C 1.207031 -0.476562 1.09375 -0.832031 1.09375 -1.3125 L 1.09375 -9.125 L 2.125 -9.125 L 2.125 -1.578125 C 2.125 -1.265625 2.164062 -1.054688 2.25 -0.953125 C 2.34375 -0.847656 2.5 -0.796875 2.71875 -0.796875 C 2.914062 -0.796875 3.082031 -0.816406 3.21875 -0.859375 L 3.21875 0 C 3.019531 0.0507812 2.789062 0.078125 2.53125 0.078125 Z M 2.53125 0.078125 "/></g></g></g><g fill="#000000" fill-opacity="1"><g transform="translate(281.556525, 215.750026)"><g><path d="M 3.65625 -6.59375 C 4.613281 -6.59375 5.28125 -6.421875 5.65625 -6.078125 C 6.039062 -5.734375 6.234375 -5.238281 6.234375 -4.59375 L 6.234375 0 L 5.359375 0 L 5.203125 -0.984375 C 5.023438 -0.640625 4.71875 -0.367188 4.28125 -0.171875 C 3.851562 0.0234375 3.390625 0.125 2.890625 0.125 C 1.398438 0.125 0.65625 -0.519531 0.65625 -1.8125 C 0.65625 -2.550781 0.875 -3.078125 1.3125 -3.390625 C 1.757812 -3.710938 2.398438 -3.875 3.234375 -3.875 L 5.203125 -3.875 L 5.203125 -4.421875 C 5.203125 -4.847656 5.085938 -5.171875 4.859375 -5.390625 C 4.640625 -5.617188 4.222656 -5.734375 3.609375 -5.734375 C 3.117188 -5.734375 2.644531 -5.6875 2.1875 -5.59375 L 2.1875 -6.5 C 2.695312 -6.5625 3.1875 -6.59375 3.65625 -6.59375 Z M 2.984375 -0.75 C 3.523438 -0.75 3.988281 -0.859375 4.375 -1.078125 C 4.757812 -1.296875 5.035156 -1.597656 5.203125 -1.984375 L 5.203125 -3.046875 L 3.296875 -3.046875 C 2.734375 -3.046875 2.332031 -2.960938 2.09375 -2.796875 C 1.851562 -2.628906 1.734375 -2.304688 1.734375 -1.828125 C 1.734375 -1.460938 1.828125 -1.191406 2.015625 -1.015625 C 2.210938 -0.835938 2.535156 -0.75 2.984375 -0.75 Z M 2.984375 -0.75 "/></g></g></g><g fill="#000000" fill-opacity="1"><g transform="translate(288.900542, 215.750026)"><g><path d="M 3.703125 0.125 C 3.046875 0.125 2.492188 0.0195312 2.046875 -0.1875 C 1.609375 -0.394531 1.273438 -0.742188 1.046875 -1.234375 C 0.816406 -1.734375 0.703125 -2.398438 0.703125 -3.234375 C 0.703125 -4.078125 0.816406 -4.742188 1.046875 -5.234375 C 1.273438 -5.722656 1.609375 -6.070312 2.046875 -6.28125 C 2.492188 -6.488281 3.046875 -6.59375 3.703125 -6.59375 C 4.359375 -6.59375 4.925781 -6.515625 5.40625 -6.359375 L 5.40625 -5.40625 C 4.882812 -5.601562 4.320312 -5.703125 3.71875 -5.703125 C 3.226562 -5.703125 2.847656 -5.625 2.578125 -5.46875 C 2.304688 -5.320312 2.109375 -5.070312 1.984375 -4.71875 C 1.867188 -4.363281 1.8125 -3.867188 1.8125 -3.234375 C 1.8125 -2.597656 1.867188 -2.101562 1.984375 -1.75 C 2.109375 -1.394531 2.304688 -1.144531 2.578125 -1 C 2.847656 -0.863281 3.234375 -0.796875 3.734375 -0.796875 C 4.410156 -0.796875 4.972656 -0.882812 5.421875 -1.0625 L 5.421875 -0.125 C 5.234375 -0.0625 4.972656 -0.00390625 4.640625 0.046875 C 4.316406 0.0976562 4.003906 0.125 3.703125 0.125 Z M 3.703125 0.125 "/></g></g></g><g fill="#000000" fill-opacity="1"><g transform="translate(294.864549, 215.750026)"><g><path d="M 6.234375 -3.890625 C 6.234375 -3.722656 6.21875 -3.46875 6.1875 -3.125 L 1.78125 -2.859375 C 1.789062 -2.128906 1.945312 -1.601562 2.25 -1.28125 C 2.5625 -0.957031 3.097656 -0.796875 3.859375 -0.796875 C 4.210938 -0.796875 4.578125 -0.832031 4.953125 -0.90625 C 5.328125 -0.988281 5.640625 -1.09375 5.890625 -1.21875 L 5.890625 -0.265625 C 5.691406 -0.160156 5.390625 -0.0703125 4.984375 0 C 4.578125 0.0820312 4.148438 0.125 3.703125 0.125 C 3.046875 0.125 2.492188 0.0195312 2.046875 -0.1875 C 1.609375 -0.394531 1.273438 -0.742188 1.046875 -1.234375 C 0.816406 -1.734375 0.703125 -2.398438 0.703125 -3.234375 C 0.703125 -4.472656 0.945312 -5.34375 1.4375 -5.84375 C 1.9375 -6.34375 2.671875 -6.59375 3.640625 -6.59375 C 4.640625 -6.59375 5.320312 -6.335938 5.6875 -5.828125 C 6.050781 -5.316406 6.234375 -4.671875 6.234375 -3.890625 Z M 5.21875 -3.875 C 5.21875 -4.269531 5.179688 -4.597656 5.109375 -4.859375 C 5.035156 -5.117188 4.882812 -5.332031 4.65625 -5.5 C 4.425781 -5.664062 4.085938 -5.75 3.640625 -5.75 C 3.160156 -5.75 2.785156 -5.664062 2.515625 -5.5 C 2.253906 -5.332031 2.070312 -5.097656 1.96875 -4.796875 C 1.863281 -4.492188 1.800781 -4.101562 1.78125 -3.625 Z M 5.21875 -3.875 "/></g></g></g><g fill="#000000" fill-opacity="1"><g transform="translate(301.800561, 215.750026)"><g><path d="M 7.890625 -6.59375 C 8.617188 -6.59375 9.15625 -6.398438 9.5 -6.015625 C 9.84375 -5.640625 10.015625 -5.125 10.015625 -4.46875 L 10.015625 0 L 8.984375 0 L 8.984375 -4.109375 C 8.984375 -4.628906 8.890625 -5.019531 8.703125 -5.28125 C 8.523438 -5.539062 8.203125 -5.671875 7.734375 -5.671875 C 7.316406 -5.671875 6.960938 -5.585938 6.671875 -5.421875 C 6.390625 -5.265625 6.1875 -4.96875 6.0625 -4.53125 L 6.0625 0 L 5.03125 0 L 5.03125 -4.109375 C 5.03125 -4.640625 4.941406 -5.03125 4.765625 -5.28125 C 4.597656 -5.539062 4.289062 -5.671875 3.84375 -5.671875 C 3.394531 -5.671875 3.035156 -5.59375 2.765625 -5.4375 C 2.492188 -5.28125 2.28125 -4.96875 2.125 -4.5 L 2.125 0 L 1.09375 0 L 1.09375 -6.484375 L 2.125 -6.484375 L 2.125 -5.625 C 2.3125 -5.988281 2.5625 -6.238281 2.875 -6.375 C 3.1875 -6.519531 3.5625 -6.59375 4 -6.59375 C 4.957031 -6.59375 5.582031 -6.242188 5.875 -5.546875 C 6.195312 -6.242188 6.867188 -6.59375 7.890625 -6.59375 Z M 7.890625 -6.59375 "/></g></g></g><g fill="#000000" fill-opacity="1"><g transform="translate(312.852578, 215.750026)"><g><path d="M 6.234375 -3.890625 C 6.234375 -3.722656 6.21875 -3.46875 6.1875 -3.125 L 1.78125 -2.859375 C 1.789062 -2.128906 1.945312 -1.601562 2.25 -1.28125 C 2.5625 -0.957031 3.097656 -0.796875 3.859375 -0.796875 C 4.210938 -0.796875 4.578125 -0.832031 4.953125 -0.90625 C 5.328125 -0.988281 5.640625 -1.09375 5.890625 -1.21875 L 5.890625 -0.265625 C 5.691406 -0.160156 5.390625 -0.0703125 4.984375 0 C 4.578125 0.0820312 4.148438 0.125 3.703125 0.125 C 3.046875 0.125 2.492188 0.0195312 2.046875 -0.1875 C 1.609375 -0.394531 1.273438 -0.742188 1.046875 -1.234375 C 0.816406 -1.734375 0.703125 -2.398438 0.703125 -3.234375 C 0.703125 -4.472656 0.945312 -5.34375 1.4375 -5.84375 C 1.9375 -6.34375 2.671875 -6.59375 3.640625 -6.59375 C 4.640625 -6.59375 5.320312 -6.335938 5.6875 -5.828125 C 6.050781 -5.316406 6.234375 -4.671875 6.234375 -3.890625 Z M 5.21875 -3.875 C 5.21875 -4.269531 5.179688 -4.597656 5.109375 -4.859375 C 5.035156 -5.117188 4.882812 -5.332031 4.65625 -5.5 C 4.425781 -5.664062 4.085938 -5.75 3.640625 -5.75 C 3.160156 -5.75 2.785156 -5.664062 2.515625 -5.5 C 2.253906 -5.332031 2.070312 -5.097656 1.96875 -4.796875 C 1.863281 -4.492188 1.800781 -4.101562 1.78125 -3.625 Z M 5.21875 -3.875 "/></g></g></g><g fill="#000000" fill-opacity="1"><g transform="translate(319.78859, 215.750026)"><g><path d="M 4.203125 -6.59375 C 5.003906 -6.59375 5.566406 -6.410156 5.890625 -6.046875 C 6.210938 -5.679688 6.375 -5.160156 6.375 -4.484375 L 6.375 0 L 5.328125 0 L 5.328125 -4.109375 C 5.328125 -4.648438 5.242188 -5.046875 5.078125 -5.296875 C 4.910156 -5.546875 4.582031 -5.671875 4.09375 -5.671875 C 3.601562 -5.671875 3.191406 -5.582031 2.859375 -5.40625 C 2.523438 -5.238281 2.28125 -4.894531 2.125 -4.375 L 2.125 0 L 1.09375 0 L 1.09375 -6.484375 L 2.125 -6.484375 L 2.125 -5.5625 C 2.3125 -5.9375 2.585938 -6.203125 2.953125 -6.359375 C 3.328125 -6.515625 3.742188 -6.59375 4.203125 -6.59375 Z M 4.203125 -6.59375 "/></g></g></g><g fill="#000000" fill-opacity="1"><g transform="translate(327.204601, 215.750026)"><g><path d="M 3.109375 -0.796875 C 3.359375 -0.796875 3.59375 -0.816406 3.8125 -0.859375 L 3.8125 0.015625 C 3.53125 0.0546875 3.285156 0.078125 3.078125 0.078125 C 2.578125 0.078125 2.191406 0.0234375 1.921875 -0.078125 C 1.648438 -0.191406 1.453125 -0.394531 1.328125 -0.6875 C 1.203125 -0.976562 1.140625 -1.410156 1.140625 -1.984375 L 1.140625 -5.609375 L 0.1875 -5.609375 L 0.1875 -6.484375 L 1.140625 -6.484375 L 1.140625 -8.015625 L 2.171875 -8.015625 L 2.171875 -6.484375 L 3.78125 -6.484375 L 3.78125 -5.609375 L 2.171875 -5.609375 L 2.171875 -2.046875 C 2.171875 -1.691406 2.191406 -1.425781 2.234375 -1.25 C 2.285156 -1.082031 2.375 -0.960938 2.5 -0.890625 C 2.632812 -0.828125 2.835938 -0.796875 3.109375 -0.796875 Z M 3.109375 -0.796875 "/></g></g></g></svg>